<?xml version="1.0" standalone="no"?><!DOCTYPE svg PUBLIC "-//W3C//DTD SVG 1.1//EN" "http://www.w3.org/Graphics/SVG/1.1/DTD/svg11.dtd"><svg t="1527579863215" class="icon" style="" viewBox="0 0 1024 1024" version="1.1" xmlns="http://www.w3.org/2000/svg" p-id="2113" xmlns:xlink="http://www.w3.org/1999/xlink" width="64" height="64"><defs><style type="text/css"></style></defs><path d="M392.32 252.3c36.64-8.1 74.5-11.95 111.96-8.67 30.21 1.86 58.94 12.9 85.73 26.35 27.23 14.27 52.9 35.42 64.06 64.91 8.31 27.67 3.8 58.31-10.65 83.18-13.93-6.67-28.37-12.34-43.27-16.44-2.09-0.56-1.53-3.3-2.03-4.91 0.66-15.06-11.05-26.57-22.87-33.99-25.82-16-56.17-23.38-86.24-25.44-9.67 0.25-19.35 0.04-29.02 0.01-44.16 3.2-86.03 22.78-119.86 50.81-16.09 15.39-33.03 30.88-42.3 51.63-6.41 12.86-8.05 29.77 1.17 41.74-10.65 13.06-19.29 27.76-26.07 43.18-23.09-17.63-43.17-41.4-49.15-70.52-3.68-18.78-2.36-38.37 2.55-56.81 8.6-31.78 28.62-59.33 52.26-81.74 22.52-21.72 49.48-38.46 78.08-50.93 11.61-4.84 23.27-9.84 35.65-12.36m106.03-3.85c-10.87 1.77-21.41 6.05-30.24 12.66-10.43 7.03-17.02 20.88-13.51 33.31 4.97 16.94 21.52 27.39 37.57 32.33 24.16 7.43 52.2 6.28 73.8-7.76 9.07-5.93 16.02-15.96 16.62-26.96 0.06-13.63-9.54-25.05-20.45-32.13-18.87-11.72-42.09-14.83-63.79-11.45m-185.92 57.28c-13.98 2.15-27.75 7.78-38.09 17.61-8.93 7.71-18.12 15.82-23.34 26.65-8.18 13.19-12.88 30.1-7.18 45.15 4.44 10.68 15.47 18.66 27.18 18.43 21.97 1.28 42.27-11.22 56.89-26.68 15.36-15.25 26.5-37.55 21.76-59.55-4.29-15.76-21.81-24.15-37.22-21.61z" fill="#484659" p-id="2114"></path><path d="M498.35 248.45c21.7-3.38 44.92-0.27 63.79 11.45 10.91 7.08 20.51 18.5 20.45 32.13-0.6 11-7.55 21.03-16.62 26.96-21.6 14.04-49.64 15.19-73.8 7.76-16.05-4.94-32.6-15.39-37.57-32.33-3.51-12.43 3.08-26.28 13.51-33.31 8.83-6.61 19.37-10.89 30.24-12.66m2.01 10.88c-13.65 2.68-28.94 8.4-35.04 22-4.14 11.32 1.27 23.84 10.84 30.55 21.39 15.64 52.38 17.22 75.06 3.34 7.93-4.57 13.46-13.08 14.24-22.22-0.72-10.6-8.16-19.25-16.75-24.78-14.4-8.56-31.9-11.32-48.35-8.89zM312.43 305.73c15.41-2.54 32.93 5.85 37.22 21.61 4.74 22-6.4 44.3-21.76 59.55-14.62 15.46-34.92 27.96-56.89 26.68-11.71 0.23-22.74-7.75-27.18-18.43-5.7-15.05-1-31.96 7.18-45.15 5.22-10.83 14.41-18.94 23.34-26.65 10.34-9.83 24.11-15.46 38.09-17.61m-5.08 12.62c-19.89 4.61-36.68 19.08-46.21 36.88-6.44 12.3-9.36 29.54 1.14 40.49 9.76 9.09 24.92 8.03 36.39 2.98 18.86-7.77 34.43-23.81 40.71-43.3 3.45-9.82 2.99-21.69-3.77-30.01-6.91-7.92-18.54-9.11-28.26-7.04zM643.52 469.19c1.57-4.18 6.36-6.5 10.33-7.85 5.56 2.29 7.09 8.88 10.35 13.42 4.96 6.51-5.21 12.28-10.96 11.18-3.72-5.25-7.4-10.73-9.72-16.75zM629.41 468.31c5.02-1.9 6.98 3.91 9.04 7.21 2.42 5.6 7.69 10.13 8.41 16.3-2.22 4.01-7.43 7.6-12.16 6.61-4.05-3.85-6.02-9.37-9.14-13.95-1.54-3.34-4.86-6.38-4.37-10.28 1.63-3.09 4.99-4.89 8.22-5.89z" fill="#FFFFFF" p-id="2115"></path><path d="M500.36 259.33c16.45-2.43 33.95 0.33 48.35 8.89 8.59 5.53 16.03 14.18 16.75 24.78-0.78 9.14-6.31 17.65-14.24 22.22-22.68 13.88-53.67 12.3-75.06-3.34-9.57-6.71-14.98-19.23-10.84-30.55 6.1-13.6 21.39-19.32 35.04-22zM307.35 318.35c9.72-2.07 21.35-0.88 28.26 7.04 6.76 8.32 7.22 20.19 3.77 30.01-6.28 19.49-21.85 35.53-40.71 43.3-11.47 5.05-26.63 6.11-36.39-2.98-10.5-10.95-7.58-28.19-1.14-40.49 9.53-17.8 26.32-32.27 46.21-36.88z" fill="#2E252F" p-id="2116"></path><path d="M340.13 388.11c33.83-28.03 75.7-47.61 119.86-50.81 9.67 0.03 19.35 0.24 29.02-0.01 30.07 2.06 60.42 9.44 86.24 25.44 11.82 7.42 23.53 18.93 22.87 33.99-0.16 1.37-0.34 2.75-0.52 4.13-20.7-4.03-41.52-7.65-62.59-8.96-34.32-3.45-69.12 0.61-102.33 9.61-42.7 13.8-83.5 34.98-116.77 65.41-5.73 4.75-10.77 10.31-16.91 14.57-9.22-11.97-7.58-28.88-1.17-41.74 9.27-20.75 26.21-36.24 42.3-51.63z" fill="#FFD16A" p-id="2117"></path><path d="M432.68 401.5c33.21-9 68.01-13.06 102.33-9.61 21.07 1.31 41.89 4.93 62.59 8.96 0.18-1.38 0.36-2.76 0.52-4.13 0.5 1.61-0.06 4.35 2.03 4.91 14.9 4.1 29.34 9.77 43.27 16.44 30.58 14.01 58.34 33.72 82.74 56.79 5.85 8.36 12.7 16 18.63 24.33 11.16 14.48 18.32 31.45 26.19 47.83 7.1 15.18 15.12 29.92 23.59 44.38 5.34 9 11.8 17.45 19.97 24.06 12.22 9.26 28.07 11.56 42.9 13.06 3.22 0.74 1.37 4.54 0.7 6.63-6.73 16.73-18.87 31.21-34.14 40.82-8.01 5.07-16.34 9.64-24.45 14.55-3.5 2.05-4.63 6.17-6.4 9.55-6.33 13.93-13.46 27.76-24.11 38.94-18.63 19.23-41.39 34.21-65.75 45.16-21.4 4.37-43.56 3.51-65.37 3.22-1.25 0.12-2.24-0.31-2.97-1.3 14.09-6.33 27.92-13.45 40.19-22.92 1.67-1.26 3.5-3.22 2.36-5.46-2.53-2.88-6.6-2.68-10.07-2.45-6.19-2.65-14.37-3.46-17.84-10 6.31-4.79 13.79-8.4 18.53-14.96 6.55-7.07 11.99-15.2 16.37-23.78 6.49-17.39 7.74-36.8 2.88-54.77-0.63-1.83-1.26-4.33-3.51-4.65-25.48 3.01-49.28-10.3-69.36-24.55-23.35-16.65-43.68-37.21-62.94-58.29-2.51-0.97-5.28 1.27-5.35 3.85-1.48 14.62-1.89 29.37-4.25 43.89-1.87 11.87-2.83 24.21-7.96 35.23-20.24-5.81-37.22-19.11-54.27-30.96-19.07-15.81-33.89-35.97-47.48-56.51-2.69-4.23-4.96-8.9-8.74-12.31-4.45-2.24-8.32 1.97-11.48 4.55-32.16 24.99-56.62 59.65-69.89 98.1-6.33 19.35-4.85 40.58 2.1 59.55 2.33 9.05 7.66 16.94 14.08 23.61 5 8.06 14.39 10.8 21.14 16.86-5.48 4.77-13.33 3.61-19.99 5.17-3.16-0.38-6.9-1.57-9.68 0.6-1.42 2.01-0.38 4.5 1.44 5.84 18.84 15.38 41.58 25.11 64.71 32.05-3.85 4.04-9.85 3.63-14.93 4.53-45.1 0.91-91.11-15.93-122.82-48.51-12.1-11.42-22.63-24.64-30.89-39.08-0.71-1.27-1.89-2.31-3.43-2.18-11.42-0.77-22.84-2.73-33.55-6.87-16.02-6.91-29.99-20.5-33.86-37.94 1.97-3.36 6.26-2.71 9.56-3.08 16.91-2.15 31.38-12.82 42-25.63 14.39-17.4 23.99-38.4 30.04-60.04 2.64-17.35 7.88-34.23 14.87-50.32 6.78-15.42 15.42-30.12 26.07-43.18 6.14-4.26 11.18-9.82 16.91-14.57 33.27-30.43 74.07-51.61 116.77-65.41m210.84 67.69c2.32 6.02 6 11.5 9.72 16.75 5.75 1.1 15.92-4.67 10.96-11.18-3.26-4.54-4.79-11.13-10.35-13.42-3.97 1.35-8.76 3.67-10.33 7.85m-14.11-0.88c-3.23 1-6.59 2.8-8.22 5.89-0.49 3.9 2.83 6.94 4.37 10.28 3.12 4.58 5.09 10.1 9.14 13.95 4.73 0.99 9.94-2.6 12.16-6.61-0.72-6.17-5.99-10.7-8.41-16.3-2.06-3.3-4.02-9.11-9.04-7.21z" fill="#FBA88E" p-id="2118"></path><path d="M412.03 552c3.16-2.58 7.03-6.79 11.48-4.55 3.78 3.41 6.05 8.08 8.74 12.31 13.59 20.54 28.41 40.7 47.48 56.51 17.05 11.85 34.03 25.15 54.27 30.96 5.13-11.02 6.09-23.36 7.96-35.23 2.36-14.52 2.77-29.27 4.25-43.89 0.07-2.58 2.84-4.82 5.35-3.85 19.26 21.08 39.59 41.64 62.94 58.29 20.08 14.25 43.88 27.56 69.36 24.55 2.25 0.32 2.88 2.82 3.51 4.65 4.86 17.97 3.61 37.38-2.88 54.77-4.38 8.58-9.82 16.71-16.37 23.78-15.14-5.99-32.45-5.32-47.96-1.09-6.58 2.24-15.44 5.7-16.04 13.72 1.33 8.94 11.43 11.95 18.87 14.17 14.49 3.18 30.52 4.01 44.44-1.84 3.47-0.23 7.54-0.43 10.07 2.45 1.14 2.24-0.69 4.2-2.36 5.46-12.27 9.47-26.1 16.59-40.19 22.92-12.13 4.54-24.7 7.94-37.07 11.76-5.31 0.23-10.5 3.21-15.76 1.22 0.97 0.62 1.94 1.27 2.9 1.95-1.75-0.08-3.46-0.25-5.16-0.55-0.29 0.3-0.88 0.91-1.17 1.22-53.84 12.09-109.81 5.62-162.75-7.91-23.13-6.94-45.87-16.67-64.71-32.05-1.82-1.34-2.86-3.83-1.44-5.84 2.78-2.17 6.52-0.98 9.68-0.6 5.92 4.24 13.43 5 20.48 5.57 12.92 0.75 26.41-0.01 38.26-5.67 4.01-2.07 8.52-5.29 8.78-10.22 0.35-4.8-3.73-8.35-7.53-10.49-10.53-5.6-22.73-6.65-34.46-6.41-9.15-0.27-18.34 1.38-26.68 5.19-6.42-6.67-11.75-14.56-14.08-23.61-6.95-18.97-8.43-40.2-2.1-59.55 13.27-38.45 37.73-73.11 69.89-98.1m11.36 86.48c-9.54 1.79-16.95 10.85-16.85 20.56-0.04 17.3-0.13 34.61 0.04 51.91 0.17 10.72 9.69 20.19 20.43 20.22 11.1 0.62 21.43-8.96 21.64-20.08 0.15-17.72 0.18-35.47-0.01-53.19-0.32-12.39-13.19-22.27-25.25-19.42m177.95-0.07c-9.67 1.65-17.3 10.71-17.29 20.52-0.05 17.39-0.14 34.78 0.04 52.16 0.12 12.72 13.61 22.77 25.83 19.82 9.55-1.97 16.76-11.21 16.55-20.94 0-17.31 0.15-34.62-0.08-51.92-0.3-12.35-12.99-22.29-25.05-19.64z" fill="#FFF1DC" p-id="2119"></path><path d="M423.39 638.48c12.06-2.85 24.93 7.03 25.25 19.42 0.19 17.72 0.16 35.47 0.01 53.19-0.21 11.12-10.54 20.7-21.64 20.08-10.74-0.03-20.26-9.5-20.43-20.22-0.17-17.3-0.08-34.61-0.04-51.91-0.1-9.71 7.31-18.77 16.85-20.56zM601.34 638.41c12.06-2.65 24.75 7.29 25.05 19.64 0.23 17.3 0.08 34.61 0.08 51.92 0.21 9.73-7 18.97-16.55 20.94-12.22 2.95-25.71-7.1-25.83-19.82-0.18-17.38-0.09-34.77-0.04-52.16-0.01-9.81 7.62-18.87 17.29-20.52z" fill="#521F37" p-id="2120"></path><path d="M620.16 729.21c15.51-4.23 32.82-4.9 47.96 1.09-4.74 6.56-12.22 10.17-18.53 14.96 3.47 6.54 11.65 7.35 17.84 10-13.92 5.85-29.95 5.02-44.44 1.84-7.44-2.22-17.54-5.23-18.87-14.17 0.6-8.02 9.46-11.48 16.04-13.72zM358.32 733.26c8.34-3.81 17.53-5.46 26.68-5.19 11.73-0.24 23.93 0.81 34.46 6.41 3.8 2.14 7.88 5.69 7.53 10.49-0.26 4.93-4.77 8.15-8.78 10.22-11.85 5.66-25.34 6.42-38.26 5.67-7.05-0.57-14.56-1.33-20.48-5.57 6.66-1.56 14.51-0.4 19.99-5.17-6.75-6.06-16.14-8.8-21.14-16.86z" fill="#FD9B90" p-id="2121"></path></svg>